<?xml version="1.0" encoding="utf-8"?>
<!-- Generator: Adobe Illustrator 15.1.0, SVG Export Plug-In . SVG Version: 6.00 Build 0)  -->
<!DOCTYPE svg PUBLIC "-//W3C//DTD SVG 1.1//EN" "http://www.w3.org/Graphics/SVG/1.1/DTD/svg11.dtd">
<svg version="1.1" id="Layer_1" xmlns="http://www.w3.org/2000/svg" xmlns:xlink="http://www.w3.org/1999/xlink" x="0px" y="0px"
	 width="75px" height="75px" viewBox="0 11.75 75 75" enable-background="new 0 11.75 75 75" xml:space="preserve">
<path fill="none" d="M51.613,37.092c-0.418-0.121-0.858-0.201-1.295-0.232c-4.764-0.348-9.525-0.768-14.294-0.997
	c-5.521-0.267-11.05-0.409-16.577-0.479c-0.699-0.009-1.752,0.594-2.018,1.192c-0.282,0.635-0.113,1.974,0.369,2.349
	c1.44,1.119,3.056,2.535,4.736,2.738c7.237,0.879,14.521,1.364,21.788,1.994c0.008-0.117,4.432-0.257,6.627-0.384
	c1.963-0.112,3.346-1.684,3.416-3.646C54.432,37.755,52.947,37.479,51.613,37.092z"/>
<path fill="none" d="M22.289,27.116c-0.013-2.903-2.606-5.295-5.758-5.309c-3.209-0.015-5.92,2.513-5.835,5.441
	c0.085,2.924,2.664,5.197,5.873,5.173C19.757,32.398,22.301,30.04,22.289,27.116z M16.901,29.967
	c-1.467,0.001-2.793-1.296-2.824-2.762c-0.033-1.567,1.303-2.859,2.911-2.815c1.543,0.042,2.713,1.265,2.689,2.811
	C19.652,28.726,18.408,29.965,16.901,29.967z"/>
<path fill="none" d="M59.023,23.296c-3.397-0.021-6.137,2.4-6.23,5.508c-0.098,3.25,2.542,5.821,6.03,5.875
	c3.505,0.053,6.288-2.394,6.354-5.582C65.245,25.927,62.477,23.317,59.023,23.296z M59.34,32.003
	c-1.652-0.029-3.004-1.411-2.97-3.039c0.032-1.6,1.485-3.003,3.075-2.973c1.643,0.032,2.953,1.409,2.928,3.078
	C62.348,30.75,61.021,32.033,59.34,32.003z"/>
<path d="M67.23,23.127c-0.826-3.553-1.888-4.417-5.584-4.724c-9.336-0.774-18.681-1.448-28.02-2.163
	c-0.007,0.196-13.224,0.489-19.822,0.628c-3.255,0.069-3.877,0.687-4.656,3.854c-1.551,6.317-1.728,12.698-0.427,19.08
	c0.814,3.994,1.792,4.854,5.88,5.369c14.072,1.772,28.205,2.246,42.371,1.849c1.691-0.047,3.373-0.381,5.064-0.496
	c2.093-0.146,3.275-1.312,3.977-3.187C68.492,36.723,68.826,29.961,67.23,23.127z M10.695,27.249
	c-0.084-2.929,2.627-5.457,5.835-5.442c3.152,0.015,5.746,2.406,5.759,5.309c0.012,2.924-2.531,5.283-5.721,5.306
	C13.359,32.445,10.78,30.172,10.695,27.249z M50.948,43.273c-2.194,0.127-6.619,0.267-6.626,0.384
	c-7.268-0.63-14.551-1.115-21.789-1.994c-1.68-0.203-3.296-1.619-4.736-2.738c-0.482-0.376-0.651-1.716-0.369-2.349
	c0.265-0.598,1.319-1.202,2.018-1.192c5.527,0.069,11.057,0.211,16.578,0.479c4.77,0.229,9.531,0.649,14.294,0.997
	c0.437,0.031,0.877,0.111,1.295,0.232c1.335,0.387,2.818,0.664,2.75,2.536C54.293,41.593,52.912,43.161,50.948,43.273z
	 M58.824,34.679c-3.489-0.053-6.129-2.624-6.029-5.874c0.092-3.107,2.831-5.529,6.229-5.508c3.453,0.021,6.224,2.631,6.156,5.801
	C65.113,32.286,62.328,34.732,58.824,34.679z"/>
<path d="M43.273,71.652c-0.451,0.003-1.215,0.632-1.301,1.089c-0.406,2.157-0.63,4.35-0.916,6.528
	c0.039,0.006,0.078,0.011,0.118,0.017c-0.059,0.688-0.146,1.377-0.172,2.067c-0.065,1.642,1.035,1.744,2.272,1.744
	c1.242,0.004,2.404-0.125,2.267-1.746c-0.248-2.879-0.556-5.756-0.974-8.615C44.505,72.294,43.723,71.65,43.273,71.652z"/>
<path d="M26.471,72.751c-0.086-0.459-0.838-1.099-1.282-1.099c-0.459,0.003-1.258,0.636-1.319,1.072
	c-0.404,2.924-0.689,5.865-0.909,8.81c-0.033,0.442,0.421,1.284,0.737,1.33c1.022,0.145,2.198,0.262,3.086-0.132
	c0.453-0.198,0.452-1.504,0.585-2.317c0.059-0.358-0.06-0.748-0.098-1.123c0.04-0.006,0.08-0.012,0.121-0.019
	C27.101,77.098,26.876,74.905,26.471,72.751z"/>
<path d="M59.445,25.99c-1.59-0.031-3.043,1.374-3.076,2.974c-0.033,1.628,1.316,3.01,2.971,3.039
	c1.684,0.03,3.008-1.252,3.032-2.934C62.396,27.399,61.088,26.022,59.445,25.99z"/>
<path d="M16.987,24.391c-1.608-0.044-2.944,1.248-2.911,2.815c0.032,1.466,1.357,2.763,2.824,2.762
	c1.508-0.002,2.752-1.242,2.775-2.767C19.699,25.655,18.53,24.433,16.987,24.391z"/>
<path d="M49.771,52.702c-0.295-1.845-1.272-2.797-3.097-2.877c-6.899-0.302-13.802-0.584-20.704-0.869
	c-1.636-0.067-2.51,0.75-2.917,2.326c-1.327,5.143-2.057,10.346-1.978,15.668c0.026,1.752,0.668,2.688,2.467,2.856
	c5.129,0.478,15.396,1.18,15.406,1.012c2.578,0,5.156,0.033,7.732-0.01c1.891-0.031,2.912-0.994,3.299-2.918
	C51.008,62.798,50.584,57.759,49.771,52.702z"/>
<path fill="#EA6AF5" d="M33.682,66.505c-6.744-4.28-9.01-18.037,1.395-10.233l0.081,0.278c2.077-2.612,4.691-3.36,7.843-2.243
	C47.291,56.264,37.253,68.77,33.682,66.505z"/>
</svg>
