<?xml version="1.0" encoding="utf-8"?>
<!-- Generator: Adobe Illustrator 15.1.0, SVG Export Plug-In . SVG Version: 6.00 Build 0)  -->
<!DOCTYPE svg PUBLIC "-//W3C//DTD SVG 1.1//EN" "http://www.w3.org/Graphics/SVG/1.1/DTD/svg11.dtd">
<svg version="1.1" id="Layer_1" xmlns="http://www.w3.org/2000/svg" xmlns:xlink="http://www.w3.org/1999/xlink" x="0px" y="0px"
	 width="75px" height="97px" viewBox="0 0 612 612" enable-background="new 0 0 612 612" xml:space="preserve">
<path fill="none" d="M421.172,236.023c-3.421-0.993-7.011-1.646-10.574-1.904c-38.869-2.835-77.724-6.256-116.641-8.126
	c-45.05-2.176-90.168-3.339-135.272-3.903c-5.705-0.075-14.3,4.849-16.462,9.724c-2.305,5.175-0.925,16.109,3.012,19.169
	c11.75,9.146,24.936,20.686,38.645,22.352c59.051,7.167,118.49,11.138,177.793,16.272c0.062-0.966,36.162-2.095,54.073-3.128
	c16.021-0.931,27.302-13.736,27.873-29.75C444.155,241.443,432.045,239.185,421.172,236.023z"/>
<path fill="none" d="M181.879,154.621c-0.102-23.691-21.263-43.208-46.988-43.323c-26.187-0.123-48.307,20.509-47.614,44.404
	c0.694,23.861,21.74,42.405,47.92,42.214C161.221,197.726,181.975,178.481,181.879,154.621z M137.911,177.89
	c-11.968,0.014-22.793-10.574-23.045-22.535c-0.272-12.791,10.628-23.331,23.752-22.971c12.593,0.347,22.134,10.323,21.943,22.937
	C160.364,167.758,150.212,177.876,137.911,177.89z"/>
<path fill="none" d="M481.631,123.456c-27.724-0.17-50.075,19.584-50.837,44.948c-0.796,26.52,20.739,47.498,49.204,47.934
	c28.595,0.435,51.32-19.53,51.857-45.546C532.399,144.924,509.803,123.626,481.631,123.456z M484.215,194.502
	c-13.491-0.238-24.508-11.512-24.234-24.8c0.265-13.056,12.116-24.507,25.099-24.262c13.402,0.265,24.086,11.499,23.882,25.119
	C508.749,184.282,497.943,194.747,484.215,194.502z"/>
<path d="M548.61,122.076c-6.752-28.988-15.409-36.047-45.58-38.542C426.85,77.216,350.615,71.715,274.4,65.887
	c-0.061,1.598-107.909,3.992-161.745,5.127c-26.561,0.564-31.641,5.603-37.992,31.443c-12.668,51.537-14.103,103.612-3.495,155.679
	c6.644,32.606,14.62,39.617,47.98,43.819c114.825,14.47,230.153,18.333,345.753,15.083c13.797-0.388,27.52-3.115,41.323-4.06
	c17.074-1.17,26.73-10.71,32.442-25.983C558.892,233.011,561.619,177.842,548.61,122.076z M87.271,155.708
	c-0.687-23.895,21.434-44.526,47.614-44.404c25.718,0.123,46.886,19.632,46.988,43.323c0.102,23.861-20.651,43.105-46.682,43.296
	C109.011,198.106,87.965,179.563,87.271,155.708z M415.738,286.479c-17.911,1.041-54.014,2.169-54.073,3.128
	c-59.303-5.134-118.735-9.099-177.793-16.272c-13.709-1.666-26.894-13.206-38.645-22.352c-3.937-3.067-5.317-14.001-3.012-19.169
	c2.162-4.875,10.764-9.799,16.463-9.724c45.104,0.564,90.222,1.721,135.272,3.903c38.924,1.87,77.778,5.291,116.641,8.126
	c3.558,0.258,7.153,0.911,10.574,1.904c10.88,3.162,22.99,5.413,22.438,20.706C443.033,272.75,431.759,285.548,415.738,286.479z
	 M480.005,216.337c-28.472-0.436-50.007-21.414-49.204-47.934c0.754-25.357,23.106-45.118,50.836-44.948
	c28.173,0.17,50.771,21.468,50.232,47.335C531.325,196.808,508.6,216.772,480.005,216.337z"/>
<path d="M353.117,518.047c-3.692,0.013-9.914,5.154-10.615,8.88c-3.318,17.605-5.134,35.496-7.479,53.285
	c0.325,0.041,0.646,0.082,0.966,0.115c-0.478,5.631-1.177,11.248-1.401,16.885c-0.537,13.39,8.446,14.226,18.551,14.239
	c10.146,0.021,19.625-1.026,18.489-14.26c-2.02-23.494-4.521-46.969-7.929-70.291C363.161,523.282,356.775,518.04,353.117,518.047z"
	/>
<path d="M216.002,527.002c-0.707-3.74-6.841-8.955-10.465-8.949c-3.747,0.015-10.268,5.183-10.764,8.752
	c-3.298,23.849-5.624,47.853-7.419,71.869c-0.272,3.625,3.434,10.485,6.011,10.854c8.344,1.189,17.938,2.136,25.181-1.062
	c3.699-1.632,3.686-12.267,4.78-18.917c0.476-2.938-0.49-6.1-0.802-9.174c0.326-0.041,0.652-0.081,0.986-0.129
	C221.143,562.464,219.313,544.594,216.002,527.002z"/>
<path d="M485.078,145.434c-12.981-0.251-24.834,11.207-25.1,24.263c-0.271,13.287,10.744,24.562,24.235,24.799
	c13.729,0.245,24.534-10.213,24.745-23.943C509.164,156.933,498.48,145.699,485.078,145.434z"/>
<path d="M138.611,132.384c-13.124-0.36-24.024,10.18-23.752,22.971c0.258,11.961,11.077,22.549,23.045,22.535
	c12.308-0.014,22.46-10.132,22.644-22.576C160.745,142.7,151.205,132.731,138.611,132.384z"/>
<path d="M406.137,363.408c-2.414-15.042-10.384-22.821-25.262-23.474c-56.311-2.455-112.628-4.767-168.946-7.092
	c-13.348-0.551-20.481,6.126-23.8,18.979c-10.826,41.97-16.783,84.422-16.137,127.86c0.211,14.287,5.454,21.943,20.135,23.305
	c41.854,3.89,125.636,9.636,125.711,8.262c21.039,0,42.078,0.266,63.104-0.088c15.43-0.252,23.767-8.105,26.922-23.8
	C416.222,445.797,412.76,404.677,406.137,363.408z"/>
<path fill="#ea6af5" d="M274.842,476.043c-55.032-34.938-73.521-147.193,11.383-83.524l0.66,2.292
	c16.952-21.325,38.284-27.431,64.001-18.312C385.9,392.457,303.987,494.512,274.842,476.043z"/>
</svg>
