<svg xmlns="http://www.w3.org/2000/svg" xmlns:xlink="http://www.w3.org/1999/xlink" version="1.0" x="0px" y="0px" viewBox="0 0 32 40" enable-background="new 0 0 32 32" xml:space="preserve"><path d="M32,2.133C32,0.954,31.046,0,29.866,0H2.133C0.955,0,0,0.954,0,2.133v27.733C0,31.046,0.955,32,2.133,32h27.733  C31.046,32,32,31.046,32,29.866V2.133z M11,26H9v-7h2V26z M9.599,12.8c-1.767,0-3.2-1.433-3.2-3.2s1.434-3.2,3.2-3.2  s3.2,1.434,3.2,3.2S11.366,12.8,9.599,12.8z M17,26h-2v-7h2V26z M23,26h-2v-7h2V26z M22.4,12.8c-1.767,0-3.2-1.433-3.2-3.2  s1.434-3.2,3.2-3.2S25.6,7.833,25.6,9.6S24.167,12.8,22.4,12.8z"/><text x="0" y="47" fill="#000000" font-size="5px" font-weight="bold" font-family="'Helvetica Neue', Helvetica, Arial-Unicode, Arial, Sans-serif">Created by Zlatko Najdenovski</text><text x="0" y="52" fill="#000000" font-size="5px" font-weight="bold" font-family="'Helvetica Neue', Helvetica, Arial-Unicode, Arial, Sans-serif">from the Noun Project</text></svg>